<svg width="24" height="24" viewBox="0 0 24 24" fill="none" xmlns="http://www.w3.org/2000/svg">
<mask id="path-1-outside-1_2_376" maskUnits="userSpaceOnUse" x="3" y="2" width="17" height="17" fill="black">
<rect fill="white" x="3" y="2" width="17" height="17"/>
<path d="M13.5858 5.41421L6.39171 12.6083C6.19706 12.8029 6.09974 12.9003 6.03276 13.0186C5.96579 13.1368 5.93241 13.2704 5.86564 13.5374L5.20211 16.1915C5.11186 16.5526 5.06673 16.7331 5.16682 16.8332C5.2669 16.9333 5.44742 16.8881 5.80844 16.7979L5.80845 16.7979L8.46257 16.1344C8.72963 16.0676 8.86316 16.0342 8.98145 15.9672C9.09974 15.9003 9.19706 15.8029 9.39171 15.6083L16.5858 8.41421L16.5858 8.41421C17.2525 7.74755 17.5858 7.41421 17.5858 7C17.5858 6.58579 17.2525 6.25245 16.5858 5.58579L16.4142 5.41421C15.7475 4.74755 15.4142 4.41421 15 4.41421C14.5858 4.41421 14.2525 4.74755 13.5858 5.41421Z"/>
</mask>
<path d="M6.39171 12.6083L7.45237 13.6689H7.45237L6.39171 12.6083ZM13.5858 5.41421L12.5251 4.35355L12.5251 4.35355L13.5858 5.41421ZM16.4142 5.41421L15.3536 6.47487L15.3536 6.47487L16.4142 5.41421ZM16.5858 5.58579L17.6464 4.52513L17.6464 4.52512L16.5858 5.58579ZM16.5858 8.41421L17.6464 9.47487L16.5858 8.41421ZM9.39171 15.6083L8.33105 14.5476L8.33105 14.5476L9.39171 15.6083ZM5.86564 13.5374L7.32086 13.9012V13.9012L5.86564 13.5374ZM5.20211 16.1915L3.7469 15.8277V15.8277L5.20211 16.1915ZM5.80845 16.7979L5.44465 15.3427L5.3793 15.359L5.31567 15.3811L5.80845 16.7979ZM8.46257 16.1344L8.09877 14.6791L8.09877 14.6791L8.46257 16.1344ZM5.16682 16.8332L6.22748 15.7725L6.22747 15.7725L5.16682 16.8332ZM5.80844 16.7979L6.17224 18.2531L6.2376 18.2368L6.30122 18.2146L5.80844 16.7979ZM8.98145 15.9672L8.2424 14.6619L8.2424 14.6619L8.98145 15.9672ZM16.5858 8.41421L17.6465 9.47487V9.47487L16.5858 8.41421ZM6.03276 13.0186L4.72746 12.2795L4.72746 12.2795L6.03276 13.0186ZM7.45237 13.6689L14.6464 6.47487L12.5251 4.35355L5.33105 11.5476L7.45237 13.6689ZM15.3536 6.47487L15.5251 6.64645L17.6464 4.52512L17.4749 4.35355L15.3536 6.47487ZM15.5251 7.35355L8.33105 14.5476L10.4524 16.6689L17.6464 9.47487L15.5251 7.35355ZM4.41043 13.1736L3.7469 15.8277L6.65733 16.5554L7.32086 13.9012L4.41043 13.1736ZM6.17226 18.2531L8.82638 17.5896L8.09877 14.6791L5.44465 15.3427L6.17226 18.2531ZM3.7469 15.8277C3.714 15.9593 3.6437 16.2241 3.62021 16.4642C3.59491 16.7228 3.57801 17.3657 4.10616 17.8938L6.22747 15.7725C6.42048 15.9655 6.53082 16.1949 6.57919 16.405C6.62109 16.587 6.60925 16.7226 6.60596 16.7563C6.60227 16.794 6.59821 16.8029 6.60886 16.7548C6.61898 16.7092 6.6333 16.6515 6.65733 16.5554L3.7469 15.8277ZM5.31567 15.3811L5.31566 15.3811L6.30122 18.2146L6.30123 18.2146L5.31567 15.3811ZM5.44465 15.3427C5.34853 15.3667 5.2908 15.381 5.24519 15.3911C5.19714 15.4018 5.20601 15.3977 5.24374 15.394C5.27744 15.3907 5.41297 15.3789 5.59501 15.4208C5.80513 15.4692 6.03447 15.5795 6.22748 15.7725L4.10615 17.8938C4.63429 18.422 5.27716 18.4051 5.53581 18.3798C5.77593 18.3563 6.04065 18.286 6.17224 18.2531L5.44465 15.3427ZM8.33105 14.5476C8.28079 14.5979 8.24426 14.6344 8.21273 14.6653C8.18146 14.6959 8.16438 14.7118 8.15517 14.7201C8.14674 14.7277 8.15246 14.722 8.16851 14.7099C8.18625 14.6967 8.21142 14.6795 8.2424 14.6619L9.7205 17.2725C10.0569 17.0821 10.314 16.8073 10.4524 16.6689L8.33105 14.5476ZM8.82637 17.5896C9.01618 17.5421 9.38407 17.463 9.7205 17.2725L8.2424 14.6619C8.27338 14.6444 8.30106 14.6316 8.32158 14.6233C8.34016 14.6157 8.34799 14.6137 8.33715 14.6171C8.32532 14.6207 8.30286 14.6271 8.26052 14.6382C8.21783 14.6494 8.16773 14.6619 8.09877 14.6791L8.82637 17.5896ZM15.5251 6.64645C15.6957 6.81706 15.8269 6.94839 15.9362 7.06332C16.046 7.17881 16.1078 7.25097 16.1433 7.29743C16.1781 7.34313 16.1624 7.33181 16.1388 7.27537C16.1103 7.20698 16.0858 7.10988 16.0858 7H19.0858C19.0858 6.33306 18.7968 5.82956 18.5283 5.47769C18.2863 5.16043 17.9498 4.82847 17.6464 4.52513L15.5251 6.64645ZM17.6464 9.47487L17.6465 9.47487L15.5251 7.35355L15.5251 7.35355L17.6464 9.47487ZM17.6465 9.47487C17.9498 9.17152 18.2863 8.83956 18.5283 8.52231C18.7968 8.17043 19.0858 7.66694 19.0858 7H16.0858C16.0858 6.89012 16.1103 6.79302 16.1388 6.72463C16.1624 6.66819 16.1781 6.65687 16.1433 6.70256C16.1078 6.74903 16.046 6.82119 15.9362 6.93667C15.8269 7.05161 15.6957 7.18294 15.5251 7.35355L17.6465 9.47487ZM14.6464 6.47487C14.8171 6.30426 14.9484 6.17307 15.0633 6.06379C15.1788 5.954 15.251 5.8922 15.2974 5.85675C15.3431 5.82188 15.3318 5.83762 15.2754 5.86116C15.207 5.88968 15.1099 5.91421 15 5.91421V2.91421C14.3331 2.91421 13.8296 3.20321 13.4777 3.47168C13.1604 3.71374 12.8285 4.0502 12.5251 4.35355L14.6464 6.47487ZM17.4749 4.35355C17.1715 4.0502 16.8396 3.71374 16.5223 3.47168C16.1704 3.20321 15.6669 2.91421 15 2.91421V5.91421C14.8901 5.91421 14.793 5.88968 14.7246 5.86116C14.6682 5.83762 14.6569 5.82188 14.7026 5.85675C14.749 5.8922 14.8212 5.954 14.9367 6.06379C15.0516 6.17307 15.1829 6.30426 15.3536 6.47487L17.4749 4.35355ZM5.33105 11.5476C5.19271 11.686 4.91795 11.9431 4.72746 12.2795L7.33806 13.7576C7.32052 13.7886 7.30335 13.8138 7.29005 13.8315C7.27802 13.8475 7.27232 13.8533 7.27991 13.8448C7.28818 13.8356 7.30412 13.8185 7.33473 13.7873C7.36561 13.7557 7.40211 13.7192 7.45237 13.6689L5.33105 11.5476ZM7.32086 13.9012C7.3381 13.8323 7.35064 13.7822 7.36179 13.7395C7.37285 13.6971 7.37931 13.6747 7.38294 13.6629C7.38627 13.652 7.3843 13.6598 7.37672 13.6784C7.36835 13.6989 7.35561 13.7266 7.33806 13.7576L4.72746 12.2795C4.53698 12.6159 4.45788 12.9838 4.41043 13.1736L7.32086 13.9012Z" fill="white" mask="url(#path-1-outside-1_2_376)"/>
<path d="M12.5 5.5L15.5 3.5L18.5 6.5L16.5 9.5L12.5 5.5Z" fill="white"/>
</svg>
