<svg width="31" height="31" viewBox="0 0 31 31" fill="none" xmlns="http://www.w3.org/2000/svg">
<path d="M6.45825 15.1034C6.45825 13.3497 6.45825 12.4728 6.81276 11.702C7.16728 10.9312 7.83306 10.3605 9.16462 9.21919L10.4563 8.11205C12.8631 6.04909 14.0665 5.01761 15.4999 5.01761C16.9334 5.01761 18.1368 6.04909 20.5436 8.11205L21.8352 9.21919C23.1668 10.3605 23.8326 10.9312 24.1871 11.702C24.5416 12.4728 24.5416 13.3497 24.5416 15.1034V20.5806C24.5416 23.0162 24.5416 24.234 23.7849 24.9906C23.0283 25.7473 21.8105 25.7473 19.3749 25.7473H11.6249C9.18933 25.7473 7.97153 25.7473 7.21489 24.9906C6.45825 24.234 6.45825 23.0162 6.45825 20.5806V15.1034Z" stroke="black" stroke-width="2"/>
<path d="M18.7291 25.7473V18.9973C18.7291 18.445 18.2814 17.9973 17.7291 17.9973H13.2708C12.7185 17.9973 12.2708 18.445 12.2708 18.9973V25.7473" stroke="black" stroke-width="2" stroke-linecap="round" stroke-linejoin="round"/>
</svg>
