<svg width="24" height="24" viewBox="0 0 24 24" fill="none" xmlns="http://www.w3.org/2000/svg">
<path fill-rule="evenodd" clip-rule="evenodd" d="M18.2365 5.33855C17.8262 5.41154 17.2597 5.59858 16.4108 5.88154L9.91987 8.0452C9.0962 8.31975 8.50236 8.51791 8.07227 8.68572C7.62009 8.86215 7.44823 8.96983 7.38918 9.02657C6.83639 9.55779 6.83639 10.4422 7.38918 10.9734C7.44823 11.0301 7.62009 11.1378 8.07227 11.3142C8.50236 11.4821 9.0962 11.6802 9.91986 11.9548C9.93521 11.9599 9.95035 11.9649 9.96529 11.9699C10.2505 12.0649 10.4634 12.1358 10.6578 12.2385C11.1281 12.4873 11.5127 12.8719 11.7615 13.3422C11.8642 13.5366 11.9352 13.7495 12.0301 14.0347C12.0351 14.0497 12.0401 14.0648 12.0452 14.0801C12.3198 14.9038 12.518 15.4976 12.6858 15.9277C12.8622 16.3799 12.9699 16.5518 13.0266 16.6108C13.5578 17.1636 14.4422 17.1636 14.9734 16.6108C15.0302 16.5518 15.1379 16.3799 15.3143 15.9277C15.4821 15.4976 15.6803 14.9038 15.9548 14.0801L18.1185 7.58917C18.4014 6.74029 18.5885 6.17377 18.6615 5.76348C18.6969 5.56413 18.6957 5.44942 18.6854 5.38674C18.6784 5.34361 18.6698 5.33647 18.667 5.33415C18.6667 5.33395 18.6665 5.33378 18.6664 5.33363C18.6662 5.33348 18.6661 5.33328 18.6659 5.33304C18.6635 5.33025 18.6564 5.32164 18.6133 5.31459C18.5506 5.30435 18.4359 5.30309 18.2365 5.33855ZM18.0088 4.05864C18.531 3.96576 19.1321 3.96088 19.5856 4.41439C20.0391 4.86791 20.0343 5.46902 19.9414 5.99117C19.8496 6.5069 19.6303 7.16491 19.3687 7.94934L19.3518 8.00026L17.1881 14.4912L17.1818 14.5102C16.9149 15.3109 16.7065 15.936 16.5254 16.4003C16.3514 16.8462 16.1667 17.2453 15.9108 17.5116C14.868 18.5967 13.132 18.5967 12.0893 17.5116C11.8334 17.2453 11.6487 16.8462 11.4747 16.4003C11.2935 15.936 11.0852 15.311 10.8183 14.5103L10.812 14.4912C10.6953 14.1413 10.6585 14.0373 10.6123 13.95C10.4856 13.7104 10.2896 13.5145 10.05 13.3877C9.96266 13.3415 9.85873 13.3047 9.50877 13.1881L9.48972 13.1817C8.68905 12.9148 8.06403 12.7065 7.59974 12.5253C7.15386 12.3514 6.75469 12.1666 6.48843 11.9107C5.4033 10.868 5.4033 9.13197 6.48843 8.08922C6.75469 7.83335 7.15386 7.64861 7.59974 7.47464C8.06404 7.29348 8.68909 7.08513 9.48978 6.81824L9.50877 6.81191L15.9998 4.64825L16.0507 4.63125C16.8351 4.36975 17.4931 4.15039 18.0088 4.05864Z" fill="black"/>
</svg>
