<svg width="33" height="31" viewBox="0 0 33 31" fill="none" xmlns="http://www.w3.org/2000/svg">
<path d="M18.5423 5.0671L19.5369 4.96366L19.5369 4.96366L18.5423 5.0671ZM18.3208 4.03196L17.4866 4.58337L17.4866 4.58337L18.3208 4.03196ZM18.9647 6.864L18.2697 7.58299L18.2697 7.58299L18.9647 6.864ZM19.6276 7.1445L19.6598 6.14502L19.6598 6.14502L19.6276 7.1445ZM21.2116 6.19657L21.8299 6.98251L21.8299 6.98251L21.2116 6.19657ZM21.2955 6.13056L20.7289 5.30652L20.7024 5.32474L20.6772 5.34462L21.2955 6.13056ZM21.2955 6.13055L21.862 6.95459L21.8885 6.93637L21.9138 6.91649L21.2955 6.13055ZM22.2473 5.54442L22.402 6.53237L22.402 6.53237L22.2473 5.54442ZM22.6539 5.56461L22.9057 4.59684L22.9057 4.59684L22.6539 5.56461ZM23.543 6.24213L24.2361 5.5213L24.2361 5.5213L23.543 6.24213ZM24.5401 7.20094L25.2332 6.4801L25.2332 6.4801L24.5401 7.20094ZM25.1898 7.96418L26.1277 7.61725L26.1277 7.61724L25.1898 7.96418ZM25.2198 8.56269L24.2519 8.31111L24.2519 8.31111L25.2198 8.56269ZM24.6495 9.38697L23.8879 8.73892L23.8879 8.73892L24.6495 9.38697ZM23.671 10.8522L24.6695 10.9066L24.6695 10.9066L23.671 10.8522ZM23.9904 11.6406L23.3113 12.3747L23.3113 12.3747L23.9904 11.6406ZM25.7129 12.0115L25.6172 13.0069L25.6172 13.0069L25.7129 12.0115ZM25.8189 12.0217L25.9146 11.0263L25.9146 11.0263L25.8189 12.0217ZM26.8588 12.2358L27.4044 11.3977L27.4044 11.3977L26.8588 12.2358ZM27.1997 12.611L28.0861 12.1481L28.0861 12.1481L27.1997 12.611ZM27.1997 16.0107L26.3132 15.5479L26.3132 15.5479L27.1997 16.0107ZM26.8587 16.386L26.3132 15.5479L26.3132 15.5479L26.8587 16.386ZM25.819 16.6001L25.7233 15.6046L25.7233 15.6047L25.819 16.6001ZM25.7128 16.6103L25.8085 17.6057L25.8085 17.6057L25.7128 16.6103ZM23.9909 16.981L23.3119 16.2468L23.3119 16.2468L23.9909 16.981ZM23.6713 17.7697L22.6728 17.8242L22.6728 17.8242L23.6713 17.7697ZM24.6496 19.2345L23.888 19.8825L23.888 19.8825L24.6496 19.2345ZM25.2197 20.0585L24.2519 20.3102L24.2519 20.3102L25.2197 20.0585ZM25.1897 20.6573L24.2519 20.3102L24.2519 20.3102L25.1897 20.6573ZM24.5402 21.4203L25.2333 22.1411L25.2333 22.1411L24.5402 21.4203ZM23.5429 22.3792L22.8498 21.6584L22.8498 21.6584L23.5429 22.3792ZM22.6539 23.0567L22.9057 24.0245L22.9057 24.0245L22.6539 23.0567ZM22.2472 23.0769L22.402 22.0889L22.402 22.0889L22.2472 23.0769ZM21.2955 22.4908L21.9138 21.7048L21.9138 21.7048L21.2955 22.4908ZM21.2118 22.425L20.5241 23.1509L20.5574 23.1825L20.5935 23.2109L21.2118 22.425ZM21.2118 22.425L21.8995 21.699L21.8662 21.6674L21.8301 21.639L21.2118 22.425ZM19.6275 21.4769L19.5952 20.4774L19.5952 20.4774L19.6275 21.4769ZM18.9649 21.7573L19.6598 22.4764L19.6598 22.4764L18.9649 21.7573ZM18.5423 23.5545L17.5476 23.4511L17.5476 23.4511L18.5423 23.5545ZM18.3207 24.5899L17.4866 24.0384L17.4866 24.0384L18.3207 24.5899ZM17.9488 24.9251L18.4111 25.8119L18.4111 25.8119L17.9488 24.9251ZM14.3645 24.9252L13.9024 25.812L13.9024 25.812L14.3645 24.9252ZM13.9925 24.5898L14.8267 24.0384L14.8267 24.0384L13.9925 24.5898ZM13.771 23.5547L14.7656 23.4512L14.7656 23.4512L13.771 23.5547ZM13.3485 21.7578L12.6535 22.4768L12.6535 22.4768L13.3485 21.7578ZM12.6856 21.4773L12.7178 20.4778L12.7178 20.4778L12.6856 21.4773ZM11.1017 22.4252L11.72 23.2111L11.72 23.2111L11.1017 22.4252ZM11.0178 22.4912L10.3995 21.7053L10.3995 21.7053L11.0178 22.4912ZM10.066 23.0774L9.91123 22.0894L9.91123 22.0894L10.066 23.0774ZM9.65939 23.0572L9.40755 24.0249L9.40756 24.025L9.65939 23.0572ZM8.7703 22.3797L8.07719 23.1005L8.0772 23.1005L8.7703 22.3797ZM7.77316 21.4209L7.08005 22.1417L7.08005 22.1417L7.77316 21.4209ZM7.12345 20.6576L8.06135 20.3107L8.06134 20.3107L7.12345 20.6576ZM7.09351 20.0591L6.12567 19.8075L6.12567 19.8075L7.09351 20.0591ZM7.66378 19.2348L6.90219 18.5868L6.90219 18.5868L7.66378 19.2348ZM8.64232 17.7695L9.64084 17.8238L9.64084 17.8238L8.64232 17.7695ZM8.3229 16.9812L7.6438 17.7152L7.6438 17.7152L8.3229 16.9812ZM6.60039 16.6103L6.50467 17.6057L6.50468 17.6057L6.60039 16.6103ZM6.49436 16.6001L6.59008 15.6047L6.59007 15.6047L6.49436 16.6001ZM5.45442 16.386L4.90884 17.224L4.90885 17.224L5.45442 16.386ZM5.11357 16.0108L4.22714 16.4736L4.22714 16.4736L5.11357 16.0108ZM5 14.9551L6 14.9551L5 14.9551ZM5 13.6667L4 13.6667L5 13.6667ZM5.11361 12.6109L6 13.0738L6 13.0738L5.11361 12.6109ZM5.45436 12.2358L6 13.0738L6 13.0738L5.45436 12.2358ZM6.49446 12.0217L6.59017 13.0171L6.59018 13.0171L6.49446 12.0217ZM6.60034 12.0115L6.50463 11.0161L6.50463 11.0161L6.60034 12.0115ZM8.32336 11.6404L9.00261 12.3743L9.00261 12.3743L8.32336 11.6404ZM8.64264 10.8524L7.64411 10.9065L7.64411 10.9065L8.64264 10.8524ZM7.66386 9.38665L6.90226 10.0347L6.90226 10.0347L7.66386 9.38665ZM7.09344 8.56208L6.12556 8.81352L6.12556 8.81352L7.09344 8.56208ZM7.12337 7.96385L6.18542 7.61706L6.18542 7.61706L7.12337 7.96385ZM7.77325 7.20034L7.08014 6.4795L7.08014 6.4795L7.77325 7.20034ZM8.77024 6.24169L9.46335 6.96252L9.46335 6.96252L8.77024 6.24169ZM9.65938 5.56413L9.91119 6.53191L9.91119 6.53191L9.65938 5.56413ZM10.0659 5.54395L9.91119 6.53191L9.91119 6.53191L10.0659 5.54395ZM11.0178 6.13011L11.6361 5.34418L11.6361 5.34418L11.0178 6.13011ZM11.102 6.19634L10.4837 6.98228L10.4837 6.98228L11.102 6.19634ZM12.6855 7.14411L12.7175 8.1436L12.7175 8.1436L12.6855 7.14411ZM13.3487 6.8635L12.6536 6.14462L12.6536 6.14462L13.3487 6.8635ZM13.771 5.06698L14.7657 5.17043L14.771 5.11884V5.06698H13.771ZM13.771 5.06697L12.7764 4.96353L12.771 5.01511V5.06697H13.771ZM13.9924 4.03205L13.1581 3.48071L13.1581 3.48072L13.9924 4.03205ZM14.3646 3.69653L13.9026 2.80969L13.9026 2.80969L14.3646 3.69653ZM17.9487 3.69658L18.4109 2.80979L18.4109 2.80979L17.9487 3.69658ZM19.5369 4.96366C19.5099 4.70371 19.484 4.44654 19.4429 4.23109C19.3991 4.00183 19.3247 3.73722 19.155 3.48054L17.4866 4.58337C17.452 4.53104 17.4595 4.50706 17.4783 4.60582C17.4998 4.71839 17.5171 4.87663 17.5476 5.17055L19.5369 4.96366ZM19.6598 6.14502C19.7519 6.23409 19.7235 6.29083 19.6749 6.05484C19.6278 5.82642 19.5927 5.49981 19.5369 4.96366L17.5476 5.17054C17.5989 5.66353 17.644 6.10877 17.716 6.45822C17.7864 6.8001 17.9156 7.24072 18.2697 7.58299L19.6598 6.14502ZM19.6598 6.14502L19.6598 6.14502L18.2697 7.58299C18.6267 7.92807 19.0993 8.12804 19.5955 8.14399L19.6598 6.14502ZM20.5932 5.41064C20.1696 5.74393 19.9107 5.9461 19.714 6.07139C19.5108 6.20083 19.5317 6.1409 19.6598 6.14502L19.5955 8.14399C20.0877 8.15981 20.494 7.94579 20.7884 7.75828C21.0893 7.56661 21.4403 7.28897 21.8299 6.98251L20.5932 5.41064ZM20.6772 5.34462L20.5932 5.41064L21.8299 6.98251L21.9138 6.91649L20.6772 5.34462ZM20.729 5.30651L20.7289 5.30652L21.862 6.9546L21.862 6.95459L20.729 5.30651ZM22.0925 4.55647C21.7698 4.60702 21.5118 4.74223 21.3035 4.87748C21.1086 5.00399 20.894 5.17403 20.6772 5.34461L21.9138 6.91649C22.1594 6.72328 22.2916 6.62047 22.3925 6.55497C22.4799 6.49822 22.4666 6.52226 22.402 6.53237L22.0925 4.55647ZM22.9057 4.59684C22.6403 4.52777 22.3635 4.51402 22.0925 4.55647L22.402 6.53237L22.402 6.53237L22.9057 4.59684ZM24.2361 5.5213C24.0372 5.33007 23.8405 5.13962 23.6591 4.99443C23.4652 4.8392 23.2219 4.67911 22.9057 4.59684L22.402 6.53237C22.3388 6.51591 22.3279 6.49068 22.4093 6.55581C22.5032 6.63098 22.6246 6.74638 22.8499 6.96296L24.2361 5.5213ZM25.2332 6.4801L24.2361 5.5213L22.8499 6.96296L23.847 7.92177L25.2332 6.4801ZM26.1277 7.61724C26.0273 7.34571 25.8709 7.13888 25.7255 6.97512C25.5882 6.8204 25.4118 6.65183 25.2332 6.4801L23.847 7.92177C24.0485 8.11553 24.1572 8.22108 24.2298 8.30285C24.2944 8.37559 24.2728 8.36764 24.2519 8.31111L26.1277 7.61724ZM26.1876 8.81428C26.2905 8.41852 26.2696 8.00075 26.1277 7.61725L24.2519 8.31111L24.2519 8.31111L26.1876 8.81428ZM25.4111 10.035C25.5716 9.84633 25.7303 9.66099 25.8515 9.49334C25.9798 9.31589 26.1148 9.09449 26.1876 8.81428L24.2519 8.31111C24.2671 8.25278 24.2878 8.24271 24.2308 8.32153C24.1667 8.41014 24.0691 8.52601 23.8879 8.73892L25.4111 10.035ZM24.6695 10.9066C24.6628 11.0303 24.6076 11.0456 24.7443 10.8517C24.8741 10.6676 25.0782 10.4262 25.4111 10.035L23.8879 8.73892C23.5807 9.09999 23.3047 9.42281 23.1098 9.69908C22.9219 9.96556 22.6975 10.3373 22.6724 10.7979L24.6695 10.9066ZM24.6695 10.9066L24.6695 10.9066L22.6724 10.7979C22.6401 11.3924 22.8743 11.9704 23.3113 12.3747L24.6695 10.9066ZM25.8086 11.0161C25.2973 10.9669 24.9827 10.9357 24.7614 10.8939C24.5282 10.8498 24.5785 10.8224 24.6695 10.9066L23.3113 12.3747C23.6499 12.6879 24.0698 12.7986 24.3902 12.8591C24.7224 12.9219 25.1452 12.9615 25.6172 13.0069L25.8086 11.0161ZM25.9146 11.0263L25.8086 11.0161L25.6172 13.0069L25.7232 13.0171L25.9146 11.0263ZM27.4044 11.3977C27.1459 11.2294 26.88 11.1569 26.65 11.1149C26.4338 11.0754 26.1757 11.0514 25.9146 11.0263L25.7232 13.0171C26.0183 13.0455 26.1773 13.0616 26.2906 13.0823C26.3901 13.1005 26.3661 13.1082 26.3132 13.0738L27.4044 11.3977ZM28.0861 12.1481C27.9271 11.8436 27.6923 11.5851 27.4044 11.3977L26.3132 13.0738L26.3132 13.0738L28.0861 12.1481ZM28.3132 13.6666C28.3132 13.4043 28.3141 13.1451 28.2954 12.9261C28.2756 12.6931 28.2288 12.4215 28.0861 12.1481L26.3132 13.0738C26.2841 13.018 26.2941 12.9948 26.3026 13.0956C26.3124 13.2103 26.3132 13.3701 26.3132 13.6666H28.3132ZM28.3132 14.9552V13.6666H26.3132V14.9552H28.3132ZM28.0862 16.4735C28.2289 16.2001 28.2756 15.9286 28.2954 15.6957C28.3141 15.4766 28.3132 15.2175 28.3132 14.9552H26.3132C26.3132 15.2517 26.3124 15.4115 26.3026 15.5262C26.2941 15.627 26.2841 15.6038 26.3132 15.5479L28.0862 16.4735ZM27.4042 17.2241C27.6923 17.0367 27.9271 16.7781 28.0862 16.4735L26.3132 15.5479L26.3132 15.5479L27.4042 17.2241ZM25.9147 17.5955C26.1757 17.5704 26.4338 17.5464 26.65 17.5069C26.88 17.4649 27.1458 17.3924 27.4042 17.2241L26.3132 15.5479C26.3661 15.5135 26.3901 15.5213 26.2906 15.5395C26.1774 15.5601 26.0183 15.5763 25.7233 15.6046L25.9147 17.5955ZM25.8085 17.6057L25.9147 17.5955L25.7233 15.6047L25.6171 15.6149L25.8085 17.6057ZM24.6698 17.7152C24.5788 17.7993 24.5286 17.7719 24.7616 17.7278C24.9829 17.6861 25.2974 17.6548 25.8085 17.6057L25.6171 15.6149C25.1453 15.6602 24.7226 15.6999 24.3905 15.7626C24.0702 15.8231 23.6505 15.9337 23.3119 16.2468L24.6698 17.7152ZM24.6698 17.7152L24.6698 17.7152L23.3119 16.2468C22.8746 16.6512 22.6403 17.2295 22.6728 17.8242L24.6698 17.7152ZM25.4112 18.5864C25.0784 18.1953 24.8743 17.954 24.7446 17.77C24.6079 17.5762 24.663 17.5915 24.6698 17.7152L22.6728 17.8242C22.6979 18.2847 22.9223 18.6563 23.1101 18.9227C23.3049 19.1989 23.5808 19.5216 23.888 19.8825L25.4112 18.5864ZM26.1875 19.8068C26.1146 19.5267 25.9797 19.3053 25.8515 19.1279C25.7303 18.9603 25.5717 18.7751 25.4112 18.5864L23.888 19.8825C24.0691 20.0954 24.1667 20.2112 24.2307 20.2998C24.2877 20.3786 24.2671 20.3685 24.2519 20.3102L26.1875 19.8068ZM26.1276 21.0043C26.2696 20.6207 26.2905 20.2027 26.1875 19.8068L24.2519 20.3102L24.2519 20.3102L26.1276 21.0043ZM25.2333 22.1411C25.4119 21.9694 25.5882 21.8009 25.7255 21.6462C25.8708 21.4825 26.0271 21.2758 26.1276 21.0043L24.2519 20.3102C24.2728 20.2537 24.2944 20.2457 24.2298 20.3185C24.1572 20.4002 24.0485 20.5057 23.8471 20.6994L25.2333 22.1411ZM24.236 23.1L25.2333 22.1411L23.8471 20.6994L22.8498 21.6584L24.236 23.1ZM22.9057 24.0245C23.2219 23.9422 23.4652 23.7821 23.6591 23.6269C23.8405 23.4817 24.0371 23.2913 24.236 23.1L22.8498 21.6584C22.6246 21.8749 22.5031 21.9903 22.4093 22.0655C22.3279 22.1306 22.3387 22.1054 22.402 22.0889L22.9057 24.0245ZM22.0924 24.0648C22.3634 24.1073 22.6403 24.0936 22.9057 24.0245L22.402 22.0889L22.402 22.0889L22.0924 24.0648ZM20.6771 23.2767C20.894 23.4473 21.1085 23.6173 21.3034 23.7438C21.5117 23.8791 21.7697 24.0143 22.0924 24.0648L22.402 22.0889C22.4666 22.0991 22.4799 22.1231 22.3925 22.0663C22.2916 22.0009 22.1593 21.898 21.9138 21.7048L20.6771 23.2767ZM20.5935 23.2109L20.6771 23.2767L21.9138 21.7048L21.8301 21.639L20.5935 23.2109ZM20.524 23.1509L20.5241 23.1509L21.8996 21.699L21.8995 21.699L20.524 23.1509ZM19.6598 22.4764C19.5317 22.4805 19.5108 22.4205 19.714 22.55C19.9108 22.6753 20.1697 22.8775 20.5935 23.2109L21.8301 21.639C21.4405 21.3325 21.0894 21.0548 20.7884 20.8631C20.4939 20.6755 20.0876 20.4615 19.5952 20.4774L19.6598 22.4764ZM19.6598 22.4764L19.6598 22.4764L19.5952 20.4774C19.0992 20.4934 18.6269 20.6933 18.27 21.0382L19.6598 22.4764ZM19.5369 23.658C19.5927 23.1217 19.6279 22.795 19.6749 22.5666C19.7235 22.3305 19.752 22.3873 19.6598 22.4764L18.27 21.0382C17.9158 21.3805 17.7865 21.8212 17.716 22.1631C17.644 22.5127 17.5989 22.958 17.5476 23.4511L19.5369 23.658ZM19.1549 25.1414C19.3246 24.8847 19.3991 24.62 19.4429 24.3907C19.484 24.1752 19.5099 23.918 19.5369 23.658L17.5476 23.4511C17.5171 23.7451 17.4998 23.9034 17.4783 24.0159C17.4594 24.1147 17.452 24.0907 17.4866 24.0384L19.1549 25.1414ZM18.4111 25.8119C18.7119 25.6551 18.9678 25.4244 19.1549 25.1414L17.4866 24.0384L17.4866 24.0384L18.4111 25.8119ZM16.8961 26.0384C17.1575 26.0384 17.416 26.0392 17.6346 26.0206C17.8672 26.0009 18.1382 25.9542 18.4111 25.8119L17.4866 24.0384C17.5422 24.0094 17.5653 24.0193 17.4651 24.0278C17.3509 24.0376 17.1917 24.0384 16.8961 24.0384V26.0384ZM15.417 26.0384H16.8961V24.0384H15.417V26.0384ZM13.9024 25.812C14.1752 25.9542 14.4461 26.0009 14.6787 26.0207C14.8972 26.0392 15.1557 26.0384 15.417 26.0384V24.0384C15.1215 24.0384 14.9624 24.0376 14.8482 24.0278C14.748 24.0193 14.7711 24.0094 14.8267 24.0384L13.9024 25.812ZM13.1583 25.1412C13.3454 25.4243 13.6014 25.6552 13.9024 25.812L14.8267 24.0384L14.8267 24.0384L13.1583 25.1412ZM12.7764 23.6581C12.8034 23.9181 12.8293 24.1752 12.8704 24.3907C12.9141 24.6199 12.9886 24.8846 13.1583 25.1412L14.8267 24.0384C14.8613 24.0907 14.8538 24.1147 14.835 24.016C14.8135 23.9034 14.7962 23.7451 14.7656 23.4512L12.7764 23.6581ZM12.6535 22.4768C12.5614 22.3877 12.5898 22.3309 12.6384 22.5669C12.6854 22.7954 12.7206 23.122 12.7764 23.6581L14.7656 23.4512C14.7144 22.9582 14.6693 22.513 14.5973 22.1636C14.5269 21.8217 14.3976 21.3811 14.0436 21.0388L12.6535 22.4768ZM12.6535 22.4768L12.6535 22.4768L14.0436 21.0388C13.6866 20.6937 13.214 20.4937 12.7178 20.4778L12.6535 22.4768ZM11.72 23.2111C12.1437 22.8778 12.4026 22.6757 12.5993 22.5504C12.8025 22.4209 12.7816 22.4809 12.6535 22.4768L12.7178 20.4778C12.2256 20.462 11.8193 20.676 11.5249 20.8635C11.2239 21.0552 10.873 21.3328 10.4834 21.6393L11.72 23.2111ZM11.6361 23.2772L11.72 23.2111L10.4834 21.6393L10.3995 21.7053L11.6361 23.2772ZM10.2207 24.0653C10.5435 24.0148 10.8015 23.8796 11.0098 23.7443C11.2047 23.6178 11.4193 23.4478 11.6361 23.2772L10.3995 21.7053C10.1539 21.8985 10.0217 22.0013 9.92077 22.0668C9.83335 22.1236 9.84664 22.0995 9.91123 22.0894L10.2207 24.0653ZM9.40756 24.025C9.67298 24.094 9.94977 24.1078 10.2207 24.0653L9.91123 22.0894L9.91123 22.0894L9.40756 24.025ZM8.0772 23.1005C8.27607 23.2917 8.47276 23.4822 8.65414 23.6274C8.84806 23.7826 9.09138 23.9427 9.40755 24.0249L9.91123 22.0894C9.9745 22.1059 9.98534 22.1311 9.90398 22.066C9.81007 21.9908 9.68866 21.8754 9.46341 21.6588L8.0772 23.1005ZM7.08005 22.1417L8.07719 23.1005L9.46341 21.6588L8.46627 20.7L7.08005 22.1417ZM6.18556 21.0045C6.286 21.2761 6.44237 21.4829 6.58773 21.6467C6.72508 21.8014 6.90145 21.97 7.08005 22.1417L8.46627 20.7C8.26475 20.5063 8.15603 20.4007 8.08344 20.3189C8.01887 20.2462 8.04043 20.2541 8.06135 20.3107L6.18556 21.0045ZM6.12567 19.8075C6.0228 20.2033 6.0437 20.621 6.18556 21.0045L8.06134 20.3107L8.06135 20.3107L6.12567 19.8075ZM6.90219 18.5868C6.74162 18.7755 6.58296 18.9608 6.46174 19.1284C6.33345 19.3059 6.19851 19.5273 6.12567 19.8075L8.06135 20.3107C8.04618 20.369 8.02551 20.3791 8.0825 20.3003C8.14657 20.2116 8.24421 20.0958 8.42538 19.8829L6.90219 18.5868ZM7.6438 17.7152C7.65053 17.5915 7.70573 17.5762 7.56901 17.77C7.43919 17.9541 7.23509 18.1955 6.90219 18.5868L8.42538 19.8829C8.73262 19.5218 9.00863 19.199 9.20346 18.9227C9.39139 18.6562 9.61579 18.2844 9.64084 17.8238L7.6438 17.7152ZM7.6438 17.7152L7.6438 17.7152L9.64084 17.8238C9.67318 17.2294 9.43901 16.6514 9.00199 16.2471L7.6438 17.7152ZM6.50468 17.6057C7.01601 17.6548 7.33059 17.6861 7.55193 17.7279C7.78504 17.7719 7.73477 17.7994 7.6438 17.7152L9.00199 16.2471C8.66341 15.9339 8.24351 15.8231 7.92309 15.7626C7.5909 15.6999 7.16803 15.6602 6.6961 15.6149L6.50468 17.6057ZM6.39864 17.5955L6.50467 17.6057L6.69611 15.6149L6.59008 15.6047L6.39864 17.5955ZM4.90885 17.224C5.16731 17.3923 5.43319 17.4649 5.66319 17.5069C5.87946 17.5464 6.13755 17.5704 6.39865 17.5955L6.59007 15.6047C6.29496 15.5763 6.1359 15.5601 6.02267 15.5395C5.92315 15.5213 5.94717 15.5135 6 15.5479L4.90885 17.224ZM4.22714 16.4736C4.38615 16.7782 4.62093 17.0366 4.90884 17.224L6 15.5479L6 15.5479L4.22714 16.4736ZM4 14.9551C4 15.2174 3.99916 15.4766 4.01779 15.6957C4.03761 15.9287 4.08439 16.2003 4.22714 16.4736L6 15.5479C6.02918 15.6038 6.01917 15.627 6.0106 15.5262C6.00084 15.4115 6 15.2516 6 14.9551L4 14.9551ZM4 13.6667L4 14.9551L6 14.9551L6 13.6667L4 13.6667ZM4.22721 12.148C4.08442 12.4214 4.03763 12.693 4.0178 12.926C3.99916 13.1451 4 13.4044 4 13.6667L6 13.6667C6 13.3702 6.00084 13.2103 6.0106 13.0956C6.01918 12.9948 6.02919 13.0179 6 13.0738L4.22721 12.148ZM4.90871 11.3978C4.6209 11.5852 4.3862 11.8435 4.22721 12.148L6 13.0738L6 13.0738L4.90871 11.3978ZM6.39875 11.0263C6.13761 11.0514 5.87947 11.0754 5.66316 11.1149C5.43312 11.1569 5.1672 11.2295 4.90871 11.3978L6 13.0738C5.94716 13.1082 5.92314 13.1005 6.02267 13.0823C6.13592 13.0616 6.29501 13.0455 6.59017 13.0171L6.39875 11.0263ZM6.50463 11.0161L6.39874 11.0263L6.59018 13.0171L6.69606 13.0069L6.50463 11.0161ZM7.64411 10.9065C7.73509 10.8223 7.7854 10.8498 7.55222 10.8938C7.3308 10.9356 7.01613 10.9669 6.50463 11.0161L6.69605 13.0069C7.16813 12.9615 7.59114 12.9218 7.92343 12.8591C8.24395 12.7985 8.66397 12.6877 9.00261 12.3743L7.64411 10.9065ZM7.64411 10.9065L7.64411 10.9065L9.00261 12.3743C9.43932 11.9701 9.67338 11.3925 9.64118 10.7983L7.64411 10.9065ZM6.90226 10.0347C7.23527 10.426 7.43944 10.6675 7.56929 10.8517C7.70605 11.0456 7.65082 11.0303 7.64411 10.9065L9.64118 10.7983C9.61621 10.3376 9.39176 9.96565 9.20377 9.69908C9.00889 9.42272 8.7328 9.09979 8.42546 8.7386L6.90226 10.0347ZM6.12556 8.81352C6.19838 9.09383 6.33335 9.31532 6.46168 9.49283C6.58293 9.66054 6.74165 9.84594 6.90226 10.0347L8.42546 8.7386C8.24423 8.52562 8.14656 8.40971 8.08248 8.32106C8.02547 8.24221 8.04615 8.25229 8.06131 8.31064L6.12556 8.81352ZM6.18542 7.61706C6.04369 8.00039 6.0228 8.41795 6.12556 8.81352L8.06131 8.31064L8.06131 8.31064L6.18542 7.61706ZM7.08014 6.4795C6.90148 6.65129 6.72506 6.81992 6.58767 6.97469C6.44226 7.1385 6.28586 7.34541 6.18542 7.61706L8.06131 8.31064C8.0404 8.36719 8.01882 8.37515 8.08341 8.30238C8.15603 8.22058 8.26478 8.115 8.46636 7.92117L7.08014 6.4795ZM8.07714 5.52086L7.08014 6.4795L8.46636 7.92117L9.46335 6.96252L8.07714 5.52086ZM9.40757 4.59635C9.09138 4.67863 8.84804 4.83872 8.65411 4.99396C8.47272 5.13916 8.27602 5.32962 8.07714 5.52086L9.46335 6.96252C9.68861 6.74593 9.81003 6.63051 9.90394 6.55534C9.98531 6.49021 9.97447 6.51544 9.91119 6.53191L9.40757 4.59635ZM10.2206 4.55599C9.94971 4.51356 9.67296 4.5273 9.40757 4.59635L9.91119 6.53191L9.91119 6.53191L10.2206 4.55599ZM11.6361 5.34418C11.4192 5.17358 11.2047 5.00353 11.0098 4.87701C10.8014 4.74175 10.5434 4.60654 10.2206 4.55599L9.91119 6.53191C9.8466 6.52179 9.83331 6.49776 9.92073 6.55451C10.0216 6.62001 10.1539 6.72283 10.3995 6.91605L11.6361 5.34418ZM11.7203 5.41041L11.6361 5.34418L10.3995 6.91605L10.4837 6.98228L11.7203 5.41041ZM12.6536 6.14462C12.7816 6.14053 12.8025 6.20043 12.5993 6.07101C12.4027 5.94575 12.1438 5.74362 11.7203 5.41041L10.4837 6.98228C10.8731 7.28867 11.224 7.56625 11.5249 7.75788C11.8192 7.94536 12.2254 8.15934 12.7175 8.1436L12.6536 6.14462ZM12.6536 6.14462L12.6536 6.14462L12.7175 8.1436C13.214 8.12772 13.6867 7.92767 14.0438 7.58238L12.6536 6.14462ZM12.7764 4.96354C12.7206 5.49956 12.6855 5.8261 12.6385 6.05446C12.5899 6.2904 12.5614 6.23369 12.6536 6.14462L14.0438 7.58238C14.3978 7.24013 14.527 6.79961 14.5974 6.45781C14.6693 6.10843 14.7144 5.6633 14.7657 5.17043L12.7764 4.96354ZM12.771 5.06697V5.06698H14.771V5.06697H12.771ZM13.1581 3.48072C12.9885 3.73736 12.9141 4.00192 12.8704 4.23112C12.8293 4.44653 12.8034 4.70364 12.7764 4.96353L14.7657 5.17041C14.7962 4.87656 14.8135 4.71836 14.835 4.60582C14.8538 4.50707 14.8613 4.53104 14.8267 4.58337L13.1581 3.48072ZM13.9026 2.80969C13.6015 2.96656 13.3453 3.19748 13.1581 3.48071L14.8267 4.58338L14.8267 4.58337L13.9026 2.80969ZM15.4169 2.58337C15.1556 2.58337 14.8972 2.58253 14.6787 2.60112C14.4462 2.62089 14.1754 2.66755 13.9026 2.80969L14.8267 4.58337C14.7711 4.61236 14.748 4.60244 14.8482 4.59392C14.9623 4.58421 15.1215 4.58337 15.4169 4.58337V2.58337ZM16.8962 2.58337H15.4169V4.58337H16.8962V2.58337ZM18.4109 2.80979C18.138 2.66758 17.8671 2.6209 17.6346 2.60112C17.4161 2.58253 17.1576 2.58337 16.8962 2.58337V4.58337C17.1917 4.58337 17.3509 4.58421 17.4651 4.59393C17.5653 4.60245 17.5422 4.61237 17.4866 4.58337L18.4109 2.80979ZM19.155 3.48054C18.9679 3.19744 18.7118 2.96662 18.4109 2.80979L17.4866 4.58337L17.4866 4.58337L19.155 3.48054ZM19.6194 14.3109C19.6194 16.0919 18.1065 17.6019 16.1568 17.6019V19.6019C19.1364 19.6019 21.6194 17.2696 21.6194 14.3109H19.6194ZM16.1568 11.0199C18.1065 11.0199 19.6194 12.5299 19.6194 14.3109H21.6194C21.6194 11.3521 19.1364 9.01988 16.1568 9.01988V11.0199ZM12.6941 14.3109C12.6941 12.5299 14.2071 11.0199 16.1568 11.0199V9.01988C13.1772 9.01988 10.6941 11.3521 10.6941 14.3109H12.6941ZM16.1568 17.6019C14.2071 17.6019 12.6941 16.0919 12.6941 14.3109H10.6941C10.6941 17.2696 13.1772 19.6019 16.1568 19.6019V17.6019Z" fill="black"/>
</svg>
