<svg width="29" height="31" viewBox="0 0 29 31" fill="none" xmlns="http://www.w3.org/2000/svg">
<path d="M4 14L3.19644 13.4048L2.75553 14L3.19644 14.5952L4 14ZM14 15C14.5523 15 15 14.5523 15 14C15 13.4477 14.5523 13 14 13V15ZM7.64089 7.40477L3.19644 13.4048L4.80356 14.5952L9.248 8.59523L7.64089 7.40477ZM3.19644 14.5952L7.64089 20.5952L9.248 19.4048L4.80356 13.4048L3.19644 14.5952ZM4 15H14V13H4V15Z" fill="black"/>
<path d="M13 10.0517V8.65443C13 7.05121 13 6.2496 13.4675 5.69208C13.9351 5.13456 14.7244 4.99491 16.3031 4.7156L18.9547 4.24648C22.2218 3.66845 23.8554 3.37943 24.9277 4.27867C26 5.17791 26 6.83685 26 10.1547V18.8453C26 22.1632 26 23.8221 24.9277 24.7213C23.8554 25.6206 22.2218 25.3316 18.9547 24.7535L16.3031 24.2844C14.7244 24.0051 13.9351 23.8654 13.4675 23.3079C13 22.7504 13 21.9488 13 20.3456V19.1759" stroke="black" stroke-width="2"/>
</svg>
