<svg width="27" height="27" viewBox="0 0 27 27" fill="none" xmlns="http://www.w3.org/2000/svg">
<path d="M7.875 8.02342V6.86204C7.875 4.71614 7.875 3.6432 8.5646 3.04511C9.25419 2.44703 10.3164 2.59877 12.4407 2.90224L18.4735 3.76408C20.9297 4.11495 22.1577 4.29039 22.8914 5.13628C23.625 5.98217 23.625 7.22271 23.625 9.70377V17.2962C23.625 19.7773 23.625 21.0178 22.8914 21.8637C22.1577 22.7096 20.9297 22.885 18.4735 23.2359L12.4407 24.0978C10.3164 24.4012 9.25419 24.553 8.5646 23.9549C7.875 23.3568 7.875 22.2839 7.875 20.138V19.1992" stroke="black" stroke-width="2"/>
<path d="M18 13.5L18.7809 12.8753L19.2806 13.5L18.7809 14.1247L18 13.5ZM4.5 14.5C3.94772 14.5 3.5 14.0523 3.5 13.5C3.5 12.9477 3.94772 12.5 4.5 12.5V14.5ZM14.2809 7.2503L18.7809 12.8753L17.2191 14.1247L12.7191 8.4997L14.2809 7.2503ZM18.7809 14.1247L14.2809 19.7497L12.7191 18.5003L17.2191 12.8753L18.7809 14.1247ZM18 14.5H4.5V12.5H18V14.5Z" fill="black"/>
</svg>
