<svg width="30" height="31" viewBox="0 0 30 31" fill="none" xmlns="http://www.w3.org/2000/svg">
<path d="M26 6.41669L23.528 8.2295C23.185 8.48106 22.7706 8.61669 22.3453 8.61669H16.7236C15.9726 8.61669 15.2848 9.03744 14.9429 9.70611L14.743 10.0971C14.3105 10.9428 14.5325 11.9761 15.2743 12.5694L19.6624 16.0799C21.2728 17.3683 22.1087 19.3934 21.8758 21.4426L21.6251 23.6494C21.5421 24.3797 21.3589 25.095 21.0806 25.7752L20 28.4167" stroke="black" stroke-width="2"/>
<path d="M1 12.9167L6.90705 11.8943C8.25944 11.6602 9.44035 12.8268 9.22286 14.1819L8.68004 17.5642C8.40674 19.267 9.25563 20.9533 10.7862 21.748L11.9162 22.3347C13.1403 22.9703 13.7733 24.3585 13.4505 25.6994L12.5556 29.4167" stroke="black" stroke-width="2"/>
<circle cx="15" cy="15.4167" r="14" stroke="black" stroke-width="2"/>
</svg>
